<svg width="322" height="239" viewBox="0 0 322 239" fill="none" xmlns="http://www.w3.org/2000/svg">
<g filter="url(#filter0_d_304_10)">
<path d="M259.788 203.324C261.077 197.556 257.181 193.484 254.927 188.915C254.652 188.347 253.221 188.36 252.119 188.042L250.444 182.377L247.715 184.237C246.726 181.471 246.202 181.628 241.102 186.618C242.826 179.09 242.331 177.747 238.004 177.965C236.458 176.235 240.591 173.811 237.24 172.274C233.591 170.609 233.644 174.782 231.153 175.558C232.212 173.305 233.27 171.031 234.328 168.798C235.134 167.522 235.872 166.206 236.54 164.853C236.894 163.932 237.106 162.317 236.618 161.854C235.446 160.754 234.046 159.537 232.05 160.927C229.46 162.742 226.611 164.156 223.599 165.12C226.087 162.924 228.711 160.851 230.982 158.488C231.898 157.512 232.138 155.957 232.681 154.661L228.603 154.556C229.628 153.582 230.724 152.61 231.859 151.639C232.268 151.309 233.097 151.36 233.336 150.986C236.244 146.46 239.946 142.154 241.694 137.197C243.186 132.874 239.685 128.562 235.248 126.477C232.075 124.985 234.023 121.984 233.421 119.718C233.324 118.591 233.401 117.457 233.648 116.353C227.816 116.733 225.736 121.351 222.487 124.789C223.791 120.761 229.454 117.225 222.984 113.648L211.523 108.071L210.28 98.4757C211.601 96.8891 213.465 94.4163 215.602 92.2306C216.26 91.5473 217.689 91.6141 218.757 91.3115C219.81 90.9392 220.895 90.6657 221.999 90.4946C223.061 90.4219 225.057 90.6333 225.09 90.8943C225.448 94.0645 227.642 93.961 229.298 93.7535C230.241 95.9785 230.697 98.8612 232.053 99.4163C233.409 99.9713 236.014 98.6479 237.642 97.5595C238.457 96.9903 238.327 95.0563 238.53 94.1712L257.537 80.1357L258.061 80.3992L256.547 83.2612L256.823 84.1886C260.346 83.329 263.869 82.4794 267.01 81.72C267.374 82.7297 267.455 84.2623 268.136 84.6099C271.285 86.2315 274.205 85.1162 276.778 83.1018L279.304 87.5282L278.259 89.2919C279.75 89.2503 280.751 89.2261 281.752 89.2118C280.131 92.3211 281.411 95.055 285.929 97.9222C284.021 100.164 285.07 101.001 287.518 101.494C290.801 102.169 291.749 104.604 289.782 107.174C287.816 109.745 288.93 111.534 290.456 113.654C291.545 115.449 292.542 117.297 293.444 119.193C294.077 120.269 294.922 121.231 295.636 122.25C296.35 123.269 296.906 124.213 297.561 125.211L296.54 125.995L293.599 123.678C292.746 122.996 291.907 121.774 291.047 121.762C289.598 121.724 288.147 122.507 286.696 122.94C287.474 123.81 288.082 125.057 289.05 125.512C293.084 127.366 297.224 128.983 301.123 131.384C298.888 130.767 296.6 130.267 294.44 129.482C291.815 128.474 290.138 129.111 289.488 131.835C288.834 134.262 288.313 136.723 287.927 139.207C287.659 140.815 287.774 142.463 288.264 144.018C289.406 147.048 291.115 149.843 292.319 152.815C292.601 153.512 291.974 154.536 291.982 155.407C291.952 156.587 291.741 158.162 292.383 158.868C297.09 164.081 298.142 168.29 295.218 173.496C299.346 175.173 299.611 178.861 299.874 183.399C298.915 181.947 297.833 180.58 296.638 179.315C295.7 178.519 294.529 178.05 293.301 177.978C292.842 177.967 292.358 179.665 291.061 180.702C291.113 179.148 291.059 177.592 290.9 176.046C290.613 175.206 290.176 174.425 289.609 173.742C288.21 174.68 286.874 175.708 285.609 176.82C285.106 177.297 285.392 178.625 284.89 179.082C281.02 182.554 282.529 186.504 283.596 190.503C284.009 192.433 284.313 194.384 284.506 196.348C282.903 196.047 281.519 195.781 280.116 195.525C276.65 187.153 276.182 186.681 272.895 188.457L270.115 184.554C269.378 185.955 268.474 186.902 268.459 187.872C268.409 189.822 267.476 190.278 265.815 190.305C261.601 190.397 259.557 193.265 260.358 197.517C260.709 199.427 262.673 201.638 259.779 203.274L259.788 203.324ZM237.609 99.2592C235.529 100.042 233.501 100.955 231.536 101.994C231.13 102.233 231.198 103.866 231.559 104.615C231.825 105.172 233.228 105.819 233.595 105.588C235.638 104.3 238.273 103.368 237.609 99.2592Z" fill="#F8FBFB"/>
<path d="M109.167 188.594C110.695 190.634 109.632 191.927 107.742 192.658C105.197 193.593 102.576 194.396 99.9833 195.239C93.8906 197.21 87.7946 199.177 81.6954 201.141C81.4229 201.234 81.0756 201.125 80.5215 200.5L104.411 189.952L104.239 189.227L99.7609 189.112L99.6651 188.559C103.469 187.307 107.236 185.913 111.093 184.912C112.039 184.666 113.312 185.759 114.452 186.169C115.049 186.469 115.714 186.607 116.382 186.569C121.021 185.478 125.653 184.326 129.234 180.837C129.468 180.608 129.754 180.437 130.067 180.339C134.24 179.096 138.441 177.963 142.576 176.659C145.53 175.769 148.411 174.652 151.194 173.32C151.732 173.044 151.463 171.036 151.444 169.835C151.464 169.046 150.819 168.069 151.114 167.516C152.163 165.602 153.119 163.446 154.725 162.087C157.68 159.582 156.293 157.886 154.631 156.413L155.121 152.114L154.346 151.934C156.896 149.229 159.633 146.678 161.889 143.755C162.674 142.775 162.284 140.815 162.377 139.947C164.092 137.83 165.585 135.778 167.303 133.931C169.752 131.304 173.175 131.202 176.383 130.954C178.178 130.953 179.971 131.096 181.744 131.382C182.042 131.369 182.339 131.428 182.609 131.555C185.437 133.628 188.245 135.701 191.012 137.773C188.354 138.855 188.524 140.41 191.145 142.348C192.215 143.136 192.767 144.59 193.691 145.614C195.637 147.755 200.031 148.038 202.781 146.919C204.206 146.335 206.113 146.894 207.902 146.941L206.868 142.012C209.176 143.282 210.921 143.887 212.202 145.031C214.764 147.327 214.737 150.328 214.382 153.629C213.892 158.288 214.31 163.021 217.543 166.855C218.271 167.714 219.653 168.02 220.285 168.356C218.919 171.398 217.724 174.513 216.704 177.687C216.017 180.25 217.309 182.154 220.034 183.145C221.59 183.715 222.898 184.989 224.314 185.946L223.812 187.183C221.438 186.912 219.068 186.501 216.689 186.41C215.543 186.53 214.418 186.807 213.347 187.234C213.786 188.436 213.896 189.989 214.726 190.781C217.655 193.587 221.123 195.637 222.134 200.264C222.654 202.619 225.387 204.48 227.221 206.687C225.521 209.785 226.555 212.362 228.939 214.934C233.154 219.474 237.112 224.238 241.163 228.934C241.41 229.397 241.589 229.893 241.695 230.408C238.556 231.497 237.412 229.297 235.948 227.489C230.745 220.953 225.593 214.358 220.103 208.075C218.365 206.029 215.674 204.86 213.33 203.419C212.927 203.168 212.135 203.608 211.514 203.652C210.371 203.743 208.917 204.266 208.12 203.755C204.488 201.471 201.702 203.59 199.767 204.54L196.645 211.572C196.053 210.345 195.374 209.161 194.616 208.029C194.005 207.253 193.084 206.119 192.383 206.171C191.272 206.422 190.284 207.05 189.586 207.949C188.982 208.736 188.612 209.676 188.516 210.663C188.11 213.983 186.5 213.972 184.013 212.638C182.787 212.021 181.371 211.899 180.057 212.297C178.744 212.695 177.633 213.583 176.956 214.777C176.318 215.841 174.754 217.551 174.438 217.383C172.8 216.532 171.337 215.382 170.124 213.991C168.584 212.015 167.151 209.958 165.831 207.828L163.41 212.497C162.913 211.624 162.604 211.156 162.367 210.66C161.676 209.132 160.961 208.163 159.288 209.79C157.77 211.262 156.168 211.341 155.74 208.899C155.112 205.321 154.766 201.681 154.379 198.06C154.336 197.06 154.362 196.058 154.456 195.061C154.012 194.81 153.818 194.595 153.647 194.62C147.132 195.523 146.742 194.743 148.859 188.265C149.565 186.112 149.477 182.919 148.322 181.139C146.86 178.88 144.129 177.7 140.823 179.075C134.513 181.704 128.118 184.16 121.632 186.234C117.782 187.355 113.621 187.748 109.167 188.594Z" fill="#F8FBFB"/>
<path d="M110.753 81.1487C106.604 77.5607 105.707 77.4376 102.861 79.9452L102.574 77.487L96.3286 70.634C99.3445 68.1108 97.4654 65.3315 95.8046 62.6179C96.8238 61.3534 97.9519 60.1808 99.1759 59.1135C100.856 57.9111 102.865 57.2544 104.93 57.2324C106.996 57.2105 109.018 57.8243 110.723 58.9906C112.553 60.1781 113.925 60.9036 116.194 59.0114C118.791 56.8475 122.281 55.7269 125.324 54.0747C129.169 51.9829 132.719 53.6048 135.279 55.9515C136.891 57.4435 136.806 60.7523 137.73 64.1272C141.43 66.5132 147.952 65.3307 150.062 61.0736C150.242 64.9895 156.316 66.8264 163.656 64.9847C162.423 67.4237 162.078 69.5656 165.141 70.6648C165.458 70.773 165.537 71.5753 165.695 72.0595C166.441 74.648 167.341 77.1897 168.39 79.6713C167.907 80.9393 165.761 82.3046 168.078 83.2545L165.027 91.4087C160.959 90.8838 162.632 95.4484 160.504 97.2943C156.372 97.3279 155.018 98.2134 154.074 101.85L151.839 100.102L151.462 103.093C148.996 102.49 146.502 101.445 144.073 101.393C140.867 101.328 137.701 100.663 134.74 99.432C133.136 98.8723 131.759 97.8042 130.817 96.39C129.602 94.6282 128.384 95.3271 127.448 96.7234C126.241 98.503 125.163 100.366 123.818 102.082C124.175 97.9596 128.94 95.4914 128.117 90.5286C126.671 90.7315 125.447 90.9 124.433 91.044C125.493 88.7305 126.793 86.4032 127.617 83.9236C128.341 81.8415 125.552 79.4189 123.185 79.6781C121.74 79.831 120.005 79.2361 118.859 79.8368C116.083 81.2158 112.857 77.1315 110.753 81.1487Z" fill="#F8FBFB"/>
<path d="M238.102 38.5017C234.084 39.1485 232.255 41.032 233.69 43.5998C231.928 43.2344 230.011 42.3447 228.283 42.6104C226.747 42.8509 225.407 44.3769 224.429 45.042C219.457 43.9137 214.712 42.8812 209.997 41.8396L205.763 35.7286C206.72 33.5225 205.809 30.0479 204.514 29.4444L205.069 21.8861L204.074 21.6605L206.544 21.3339C207.133 16.6975 211.316 15.4548 213.261 13.7343C216.553 13.3388 218.886 13.2388 221.139 12.7566C223.694 12.2022 227.548 14.4521 229.349 15.969C233.097 19.2065 233.643 25.5726 239.758 26.2402C238.74 26.9342 237.408 27.4001 237.239 28.126C237.07 28.8519 238.124 29.8694 238.51 30.8096C238.915 31.5773 239.132 32.4293 239.146 33.2968C238.888 35.0486 238.539 36.7858 238.102 38.5017V38.5017Z" fill="#F8FBFB"/>
<path d="M28.0827 35.7863L27.0846 38.0314C29.0646 38.8326 30.877 39.5395 32.0358 39.9895L33.8244 43.5667C33.8652 45.4168 34.0688 47.2597 34.4328 49.0741C35.2326 51.8156 32.5417 53.3669 32.469 55.8058C32.3187 56.9584 31.8887 58.0566 31.2162 59.0047C30.8925 59.5365 30.0376 59.7146 29.5356 60.1718C27.2238 62.5226 24.3234 64.2098 21.1371 65.0573C16.434 66.2867 13.0719 64.3795 10.0354 62.6508C6.37808 60.556 4.68419 56.4111 4.38476 51.7218C4.05873 46.5117 7.6899 43.4041 9.70348 39.4046C11.393 35.9469 15.64 36.8965 18.0138 34.4468C18.6098 33.8319 20.931 34.982 22.4759 35.2019C24.1599 35.4553 25.8975 35.57 28.0827 35.7863Z" fill="#F8FBFB"/>
<path d="M180.114 113.874C178.773 116.05 177.279 118.128 175.642 120.091C174.326 121.488 172.404 122.299 170.756 123.377C169.341 124.341 167.604 124.976 166.6 126.271C165.174 128.035 164.214 128.41 162.831 125.824C162.381 128.893 160.489 128.584 158.769 128.17C156.78 127.709 156.063 126.43 156.188 124.292C156.443 119.797 155.641 119.116 151.615 119.663C152.951 115.956 151.868 112.557 150.879 109.411C152.936 107.213 155.181 104.71 157.6 102.441C158.421 101.662 159.834 101.548 160.879 100.975C165.517 98.4036 170.08 98.7311 174.061 102.235C175.294 103.317 177.047 102.832 178.236 104.813C179.511 106.987 181.655 108.392 180.478 111.393C180.189 112.126 180.771 113.201 180.958 114.116L180.114 113.874Z" fill="#F8FBFB"/>
<path d="M85.0841 46.1765C83.005 44.1724 80.6344 42.6108 79.2807 40.4053C77.6197 37.7016 78.904 34.8337 81.0473 32.7882C83.1906 30.7427 85.8071 29.7497 88.9626 31.1314C90.7132 31.9067 92.7736 31.9197 94.6395 32.4879C95.8207 32.8484 97.6172 33.3948 97.8368 34.1907C98.0295 35.6422 97.7122 37.1155 96.9392 38.359C96.0875 40.1027 94.8309 41.6173 93.2743 42.7762C90.9875 44.1778 88.2781 44.8983 85.0841 46.1765Z" fill="#F8FBFB"/>
<path d="M78.25 53.6333C76.4049 51.8652 76.4941 51.5074 79.8978 50.2446C81.4732 49.6649 82.9385 48.7023 84.5677 48.3641C86.0419 48.269 87.5221 48.3642 88.9719 48.6476C89.4516 49.5755 90.0746 50.422 90.8179 51.1559C93.5476 53.1468 94.1505 55.7632 93.4709 58.8467C92.7362 62.1289 90.0267 63.2395 87.2468 63.9782C85.232 64.5266 82.538 65.4275 81.0593 64.5792C79.5807 63.7309 79.4125 60.9356 78.8942 58.9216C78.5695 57.174 78.3544 55.4078 78.25 53.6333V53.6333Z" fill="#F8FBFB"/>
<path d="M203.987 82.5584C202.475 81.059 200.764 79.1443 198.826 77.5039C196.192 75.2654 196.227 71.9852 199.109 68.8083C201.292 66.4237 204.252 65.2895 207.068 66.2423C209.607 67.0979 212.357 68.3091 213.012 71.9971C214.001 77.4944 212.731 79.4124 207.011 80.1154C205.807 80.2645 204.764 81.9082 203.987 82.5584Z" fill="#F8FBFB"/>
<path d="M210.622 48.638C210.47 51.445 208.271 53.6992 205.783 53.5951C203.295 53.4911 200.509 50.5884 200.561 48.189C200.612 45.7895 203.962 42.3646 206.068 42.5188C207.924 42.7066 210.679 46.4388 210.622 48.638Z" fill="#F8FBFB"/>
<path d="M262.719 9.82568C261.42 9.22801 260.158 8.55421 258.939 7.80777C257.839 7.0192 256.38 6.18139 256.009 5.05147C255.638 3.92155 255.86 1.52646 256.662 1.06695C257.973 0.250422 260.748 -0.278357 261.499 0.471216C263.041 2.22885 264.087 4.36536 264.531 6.66127C264.767 7.56766 263.272 8.91962 262.719 9.82568Z" fill="#F8FBFB"/>
<path d="M21.2694 152.8C23.0103 150.844 23.9315 148.867 25.3841 148.394C27.2815 147.743 30.331 150.522 30.2193 152.14C30.1055 154.228 27.7045 156.567 25.8198 155.948C24.2914 155.478 23.0856 154.137 21.2694 152.8Z" fill="#F8FBFB"/>
<path d="M313.632 121.863C311.787 115.813 312.627 111.153 316.076 108.921C318.215 111.697 317.115 117.531 313.632 121.863Z" fill="#F8FBFB"/>
<path d="M66.1367 93.2446C69.3147 90.6455 71.69 88.5259 74.308 86.6927C75.3625 86.1698 76.5318 85.9212 77.7078 85.9699C78.2589 85.9341 79.2098 86.2987 79.33 86.6819C79.4586 87.396 79.3445 88.1325 79.006 88.7743C78.7301 89.2445 78.2844 89.5911 77.7607 89.7425C74.08 90.8882 70.4613 91.9554 66.1367 93.2446Z" fill="#F8FBFB"/>
<path d="M127.706 193.552C126.177 196.594 121.42 198.762 116.713 198.561C120.667 196.912 122.499 192.188 127.706 193.552Z" fill="#F8FBFB"/>
<path d="M311.817 136.031L303.457 131.634L303.545 131.346L309.85 133.159L312.28 126.99L313.095 127.191L311.817 136.031Z" fill="#F8FBFB"/>
<path d="M300.385 101.785C300.925 99.9331 301.596 98.1218 302.395 96.3653C302.657 95.8719 304.035 95.9673 304.89 95.7893C304.96 96.5813 305.345 97.5616 305.02 98.1234C304.025 99.6587 302.945 101.137 301.785 102.552L300.385 101.785Z" fill="#F8FBFB"/>
<path d="M202.071 108.818L202.445 94.2727L203.963 94.3718L202.929 108.9L202.071 108.818Z" fill="#F8FBFB"/>
<path d="M303.089 174.299L304.265 165.156C307.792 168.798 305.101 171.55 303.864 174.519L303.089 174.299Z" fill="#F8FBFB"/>
<path d="M82.4358 21.2103C84.0185 19.9606 85.0024 18.6555 85.6488 18.8022C86.6431 19.0379 87.3517 20.2665 88.1911 21.0784C87.3923 21.798 86.6722 22.9599 85.7778 23.1169C84.8835 23.274 84.0808 22.203 82.4358 21.2103Z" fill="#F8FBFB"/>
<path d="M107.903 22.8062C108.861 24.4614 109.982 25.5806 109.749 26.0847C109.294 27.0734 108.096 27.7528 107.205 28.5601C106.652 27.8757 105.533 27.0666 105.647 26.5193C105.884 25.4451 106.799 24.5183 107.903 22.8062Z" fill="#F8FBFB"/>
<path d="M85.3665 15.7838C87.0645 14.7172 88.0538 13.5923 88.8609 13.7131C89.6681 13.8339 90.3639 15.1722 91.1135 15.9718C90.296 16.641 89.5167 17.7713 88.6549 17.8291C87.7931 17.887 86.9402 16.8247 85.3665 15.7838Z" fill="#F8FBFB"/>
<path d="M130.306 191.238C132.228 190.027 134.036 188.203 136.742 190.724L130.495 192.063L130.306 191.238Z" fill="#F8FBFB"/>
<path d="M259.788 203.314L261.549 215.364L260.346 215.483L259.788 203.314Z" fill="#F8FBFB"/>
<path d="M261.448 29.6495C263.305 28.6269 263.945 25.5224 266.788 26.2158L267.392 27.2316C265.576 28.2452 263.749 29.2585 261.932 30.2821L261.448 29.6495Z" fill="#F8FBFB"/>
</g>
<defs>
<filter id="filter0_d_304_10" x="0.364258" y="0.111023" width="320.804" height="238.587" filterUnits="userSpaceOnUse" color-interpolation-filters="sRGB">
<feFlood flood-opacity="0" result="BackgroundImageFix"/>
<feColorMatrix in="SourceAlpha" type="matrix" values="0 0 0 0 0 0 0 0 0 0 0 0 0 0 0 0 0 0 127 0" result="hardAlpha"/>
<feOffset dy="4"/>
<feGaussianBlur stdDeviation="2"/>
<feComposite in2="hardAlpha" operator="out"/>
<feColorMatrix type="matrix" values="0 0 0 0 0 0 0 0 0 0 0 0 0 0 0 0 0 0 0.25 0"/>
<feBlend mode="normal" in2="BackgroundImageFix" result="effect1_dropShadow_304_10"/>
<feBlend mode="normal" in="SourceGraphic" in2="effect1_dropShadow_304_10" result="shape"/>
</filter>
</defs>
</svg>
